<?xml version="1.0" standalone="no"?>
<!DOCTYPE svg PUBLIC "-//W3C//DTD SVG 20010904//EN"
 "http://www.w3.org/TR/2001/REC-SVG-20010904/DTD/svg10.dtd">
<svg version="1.0" xmlns="http://www.w3.org/2000/svg"
 width="800.000000pt" height="600.000000pt" viewBox="0 0 800.000000 600.000000"
 preserveAspectRatio="xMidYMid meet">

<g transform="translate(0.000000,600.000000) scale(0.100000,-0.100000)"
fill="#000000" stroke="none">
<path d="M3570 5249 c-173 -20 -291 -69 -400 -167 l-55 -49 285 0 c683 0 986
-86 1300 -370 264 -238 434 -532 492 -848 17 -94 17 -371 -1 -460 -35 -182
-120 -376 -227 -523 -247 -337 -686 -544 -1066 -502 -224 25 -374 103 -542
282 -294 312 -382 593 -277 888 100 283 359 518 633 574 97 20 144 20 222 0
111 -28 192 -79 302 -189 105 -104 169 -191 187 -253 16 -54 14 -228 -2 -287
-25 -90 -71 -167 -140 -236 -109 -109 -220 -153 -386 -153 -92 -1 -104 2 -155
29 -68 37 -150 117 -181 176 -31 60 -38 187 -15 255 38 112 127 191 246 218
82 19 140 21 140 4 0 -22 -53 -80 -86 -94 -39 -16 -102 -18 -139 -4 -25 9 -27
7 -47 -38 -49 -109 -31 -233 47 -320 65 -72 139 -105 240 -106 72 -1 87 3 147
32 260 127 271 518 22 702 -48 34 -170 76 -251 85 -98 11 -206 -10 -309 -60
-75 -36 -103 -57 -156 -114 -99 -107 -145 -208 -167 -363 -7 -54 -6 -83 9
-151 63 -286 221 -500 443 -601 104 -47 167 -60 297 -60 200 0 368 61 555 203
276 210 395 445 395 782 0 270 -77 491 -228 651 -86 91 -297 277 -387 340 -90
64 -206 120 -320 154 -82 25 -104 28 -255 28 -147 0 -176 -3 -265 -27 -251
-67 -664 -325 -851 -530 -119 -131 -211 -299 -265 -482 -21 -70 -24 -100 -24
-250 0 -207 15 -271 110 -463 260 -526 688 -877 1205 -989 116 -25 473 -25
642 0 280 42 515 137 726 297 245 184 439 533 536 960 128 563 -27 1059 -474
1524 -268 279 -457 382 -881 480 -152 35 -159 36 -355 35 -109 -1 -233 -5
-274 -10z"/>
<path d="M4994 2005 c-51 -55 -74 -142 -74 -281 0 -109 1 -114 19 -105 15 8
20 27 26 96 13 156 44 245 85 245 50 0 80 -167 62 -345 -15 -135 -32 -201 -82
-318 -73 -168 -139 -238 -210 -222 -86 19 -58 240 45 354 21 22 41 41 45 41 8
0 14 -47 26 -197 6 -78 7 -81 26 -70 18 11 19 21 16 188 -2 138 0 179 11 192
12 15 10 17 -19 17 -69 0 -149 -82 -215 -221 -68 -144 -68 -248 0 -316 38 -38
71 -42 155 -17 55 16 69 11 70 -25 0 -8 18 -52 40 -98 59 -120 129 -168 211
-144 47 14 69 44 69 93 0 47 -11 48 -41 3 -28 -42 -55 -51 -104 -35 -43 14
-77 57 -115 147 -40 94 -39 131 11 234 55 112 74 169 103 308 51 242 45 335
-29 454 -32 49 -41 57 -67 57 -22 0 -40 -10 -64 -35z"/>
<path d="M5440 1870 c-45 -48 -70 -138 -70 -252 0 -95 13 -129 26 -70 36 162
72 260 100 279 22 14 26 14 49 -1 22 -14 25 -24 25 -74 0 -106 -35 -179 -105
-220 -55 -32 -117 -26 -185 18 -72 46 -72 32 0 -19 33 -23 60 -44 60 -45 0
-27 32 -433 36 -464 12 -79 31 -60 74 73 30 92 92 215 130 259 55 62 133 69
142 14 2 -13 -4 -48 -15 -78 -40 -122 -60 -225 -61 -327 -1 -98 0 -104 25
-128 55 -55 156 -39 185 30 27 66 14 124 -40 174 -29 28 -34 13 -9 -25 16 -25
16 -30 -7 -95 -28 -82 -37 -92 -70 -76 -47 23 -38 145 26 355 40 132 44 197
13 236 -39 49 -139 25 -210 -50 -47 -50 -115 -169 -131 -228 -12 -46 -28 -62
-28 -28 0 9 -5 82 -11 161 -13 192 -13 194 59 209 86 18 135 75 162 190 17 73
6 134 -32 177 -25 29 -37 35 -70 35 -32 0 -46 -6 -68 -30z"/>
<path d="M6097 1865 c-4 -8 -24 -26 -47 -40 -48 -30 -51 -51 -10 -60 25 -5 30
-11 30 -36 0 -25 4 -29 28 -29 20 0 39 11 61 35 17 19 37 35 43 35 6 0 4 8 -6
19 -9 10 -14 25 -10 35 4 11 1 16 -10 16 -9 0 -16 6 -16 14 0 7 -10 16 -22 20
-32 8 -35 8 -41 -9z"/>
<path d="M2854 1651 c-112 -68 -253 -344 -229 -451 11 -49 42 -80 81 -80 55 0
118 65 170 177 24 50 47 94 52 97 5 3 12 -20 16 -52 14 -123 41 -172 94 -172
58 0 96 53 157 223 31 86 32 88 43 60 21 -57 22 -103 2 -254 -17 -134 -18
-155 -5 -168 20 -21 37 -3 71 75 78 178 139 289 173 312 56 36 65 31 59 -36
-3 -32 -20 -102 -37 -155 -34 -107 -41 -184 -16 -193 33 -13 67 28 125 150 95
198 191 328 266 356 36 14 87 12 109 -4 15 -11 19 -26 18 -77 -1 -76 -11 -104
-98 -255 -115 -200 -146 -294 -125 -375 22 -82 88 -124 155 -99 59 22 121 100
139 174 8 33 -36 136 -59 136 -21 0 -26 -16 -10 -30 8 -7 20 -30 26 -51 10
-32 9 -46 -5 -83 -29 -77 -103 -120 -136 -81 -9 11 -11 39 -7 98 6 88 24 147
80 267 43 92 92 239 101 302 9 61 -8 124 -40 144 -31 21 -87 13 -154 -21 -57
-29 -164 -125 -205 -185 -31 -45 -45 -40 -45 16 0 41 -34 84 -66 84 -58 0
-131 -67 -183 -167 -48 -93 -47 -92 -60 -6 -19 130 -28 153 -66 169 -19 8 -36
14 -39 14 -2 0 -16 -35 -30 -77 -40 -119 -88 -206 -120 -218 -21 -7 -29 -6
-36 5 -13 21 -12 154 1 245 12 80 6 101 -25 89 -9 -4 -29 -30 -43 -58 -80
-158 -197 -322 -238 -332 -70 -18 -71 65 -2 203 48 94 118 188 162 217 14 9
48 20 76 23 38 4 49 9 45 20 -4 8 -6 21 -6 29 0 22 -97 19 -136 -5z"/>
<path d="M4354 1651 c-49 -30 -121 -119 -164 -206 -33 -65 -43 -97 -52 -173
-10 -87 -9 -96 9 -120 57 -76 158 -9 235 154 21 46 42 85 46 88 5 3 13 -31 20
-74 15 -105 32 -137 77 -146 53 -10 81 15 125 109 59 129 87 230 65 233 -5 1
-24 -38 -41 -87 -44 -127 -85 -202 -118 -214 -43 -15 -48 4 -41 140 11 216 12
200 -10 200 -19 0 -34 -22 -136 -207 -44 -80 -120 -171 -152 -182 -44 -16 -52
1 -38 75 19 95 46 159 101 237 64 91 103 121 169 129 40 4 51 9 47 20 -4 8 -6
21 -6 29 0 22 -97 19 -136 -5z"/>
<path d="M6018 1626 c-18 -9 -22 -19 -20 -44 2 -17 -8 -78 -21 -134 -57 -237
-58 -328 -5 -373 37 -31 64 -28 151 18 55 29 237 189 237 208 0 26 -40 1 -120
-76 -93 -88 -156 -128 -193 -123 -32 5 -48 45 -41 103 10 81 60 266 88 325 22
47 24 57 12 74 -17 27 -58 37 -88 22z"/>
<path d="M2219 1605 c-85 -27 -150 -122 -133 -198 17 -81 70 -136 195 -201 74
-39 89 -51 89 -71 0 -38 -26 -55 -82 -55 -28 0 -68 5 -89 11 -67 21 -142 99
-94 99 22 0 18 38 -5 45 -25 8 -60 -11 -60 -33 0 -26 51 -103 89 -134 81 -69
203 -61 309 20 37 28 43 68 15 99 -10 11 -70 48 -133 83 -169 92 -202 129
-181 207 14 50 43 88 84 109 38 20 140 12 203 -15 68 -31 117 -110 88 -142
-25 -28 -81 -25 -90 4 -4 12 -16 42 -26 67 -22 51 -38 42 -38 -23 0 -105 171
-159 204 -65 18 52 -49 149 -129 187 -53 25 -145 27 -216 6z"/>
</g>
</svg>
